<mxfile host="Electron" modified="2023-07-01T06:31:51.527Z" agent="Mozilla/5.0 (Windows NT 10.0; Win64; x64) AppleWebKit/537.36 (KHTML, like Gecko) draw.io/21.2.8 Chrome/112.0.5615.165 Electron/24.2.0 Safari/537.36" etag="pUT6qraH5WBOk_aroOPe" version="21.2.8" type="device" pages="3">
  <diagram name="Page-1" id="dbga6xk_af1zGEX7fyir">
    <mxGraphModel dx="864" dy="516" grid="1" gridSize="10" guides="1" tooltips="1" connect="1" arrows="1" fold="1" page="1" pageScale="1" pageWidth="827" pageHeight="1169" math="0" shadow="0">
      <root>
        <mxCell id="0" />
        <mxCell id="1" parent="0" />
        <mxCell id="m_GrjNjseGDkRT2hHFuu-1" value="&lt;font style=&quot;font-size: 14px;&quot; face=&quot;Times New Roman&quot;&gt;Business Understanding&lt;/font&gt;" style="shape=step;perimeter=stepPerimeter;whiteSpace=wrap;html=1;fixedSize=1;fillColor=#dae8fc;strokeColor=#6c8ebf;" parent="1" vertex="1">
          <mxGeometry x="140" y="120" width="120" height="80" as="geometry" />
        </mxCell>
        <mxCell id="m_GrjNjseGDkRT2hHFuu-2" value="&lt;font style=&quot;font-size: 13px;&quot; face=&quot;Times New Roman&quot;&gt;Data&amp;nbsp;&lt;br&gt;Understanding&lt;/font&gt;" style="shape=step;perimeter=stepPerimeter;whiteSpace=wrap;html=1;fixedSize=1;fillColor=#dae8fc;strokeColor=#6c8ebf;" parent="1" vertex="1">
          <mxGeometry x="240" y="120" width="120" height="80" as="geometry" />
        </mxCell>
        <mxCell id="m_GrjNjseGDkRT2hHFuu-3" value="&lt;font face=&quot;Times New Roman&quot; style=&quot;font-size: 14px;&quot;&gt;Data&amp;nbsp;&lt;br&gt;Preparation&lt;/font&gt;" style="shape=step;perimeter=stepPerimeter;whiteSpace=wrap;html=1;fixedSize=1;fillColor=#dae8fc;strokeColor=#6c8ebf;" parent="1" vertex="1">
          <mxGeometry x="340" y="120" width="120" height="80" as="geometry" />
        </mxCell>
        <mxCell id="m_GrjNjseGDkRT2hHFuu-4" value="&lt;font face=&quot;Times New Roman&quot; style=&quot;font-size: 14px;&quot;&gt;Modelling&lt;/font&gt;" style="shape=step;perimeter=stepPerimeter;whiteSpace=wrap;html=1;fixedSize=1;fillColor=#dae8fc;strokeColor=#6c8ebf;" parent="1" vertex="1">
          <mxGeometry x="440" y="120" width="120" height="80" as="geometry" />
        </mxCell>
        <mxCell id="m_GrjNjseGDkRT2hHFuu-5" value="&lt;font face=&quot;Times New Roman&quot; style=&quot;font-size: 14px;&quot;&gt;Evaluation&lt;/font&gt;" style="shape=step;perimeter=stepPerimeter;whiteSpace=wrap;html=1;fixedSize=1;fillColor=#dae8fc;strokeColor=#6c8ebf;" parent="1" vertex="1">
          <mxGeometry x="540" y="120" width="120" height="80" as="geometry" />
        </mxCell>
        <mxCell id="m_GrjNjseGDkRT2hHFuu-6" value="&lt;font face=&quot;Times New Roman&quot; style=&quot;font-size: 14px;&quot;&gt;Deployment&lt;/font&gt;" style="shape=step;perimeter=stepPerimeter;whiteSpace=wrap;html=1;fixedSize=1;fillColor=#dae8fc;strokeColor=#6c8ebf;" parent="1" vertex="1">
          <mxGeometry x="640" y="120" width="120" height="80" as="geometry" />
        </mxCell>
        <mxCell id="m_GrjNjseGDkRT2hHFuu-18" style="edgeStyle=orthogonalEdgeStyle;rounded=0;orthogonalLoop=1;jettySize=auto;html=1;exitX=1;exitY=0.5;exitDx=0;exitDy=0;" parent="1" source="m_GrjNjseGDkRT2hHFuu-7" edge="1">
          <mxGeometry relative="1" as="geometry">
            <mxPoint x="320" y="300" as="targetPoint" />
          </mxGeometry>
        </mxCell>
        <mxCell id="m_GrjNjseGDkRT2hHFuu-7" value="&lt;font face=&quot;Times New Roman&quot;&gt;Determine Business Objectives&lt;/font&gt;" style="shape=process;whiteSpace=wrap;html=1;backgroundOutline=1;" parent="1" vertex="1">
          <mxGeometry x="140" y="240" width="120" height="60" as="geometry" />
        </mxCell>
        <mxCell id="m_GrjNjseGDkRT2hHFuu-28" style="edgeStyle=orthogonalEdgeStyle;rounded=0;orthogonalLoop=1;jettySize=auto;html=1;exitX=1;exitY=0.5;exitDx=0;exitDy=0;entryX=0;entryY=0.5;entryDx=0;entryDy=0;" parent="1" source="m_GrjNjseGDkRT2hHFuu-8" target="m_GrjNjseGDkRT2hHFuu-24" edge="1">
          <mxGeometry relative="1" as="geometry" />
        </mxCell>
        <mxCell id="m_GrjNjseGDkRT2hHFuu-8" value="&lt;font face=&quot;Times New Roman&quot;&gt;Assess&lt;br&gt;Situation&lt;br&gt;&lt;/font&gt;" style="shape=process;whiteSpace=wrap;html=1;backgroundOutline=1;" parent="1" vertex="1">
          <mxGeometry x="140" y="340" width="120" height="60" as="geometry" />
        </mxCell>
        <mxCell id="m_GrjNjseGDkRT2hHFuu-9" value="&lt;font face=&quot;Times New Roman&quot;&gt;Determine&amp;nbsp;&lt;br&gt;Data Mining&lt;br&gt;Goals&lt;br&gt;&lt;/font&gt;" style="shape=process;whiteSpace=wrap;html=1;backgroundOutline=1;" parent="1" vertex="1">
          <mxGeometry x="140" y="440" width="120" height="60" as="geometry" />
        </mxCell>
        <mxCell id="m_GrjNjseGDkRT2hHFuu-10" value="&lt;font face=&quot;Times New Roman&quot;&gt;Produce Project Plan&lt;/font&gt;" style="shape=process;whiteSpace=wrap;html=1;backgroundOutline=1;" parent="1" vertex="1">
          <mxGeometry x="140" y="550" width="120" height="60" as="geometry" />
        </mxCell>
        <mxCell id="m_GrjNjseGDkRT2hHFuu-12" value="" style="endArrow=none;html=1;rounded=0;exitX=0.417;exitY=-0.05;exitDx=0;exitDy=0;exitPerimeter=0;" parent="1" source="m_GrjNjseGDkRT2hHFuu-7" edge="1">
          <mxGeometry width="50" height="50" relative="1" as="geometry">
            <mxPoint x="190" y="230" as="sourcePoint" />
            <mxPoint x="190" y="210" as="targetPoint" />
          </mxGeometry>
        </mxCell>
        <mxCell id="m_GrjNjseGDkRT2hHFuu-15" value="" style="endArrow=none;html=1;rounded=0;exitX=0.417;exitY=0;exitDx=0;exitDy=0;exitPerimeter=0;" parent="1" source="m_GrjNjseGDkRT2hHFuu-8" edge="1">
          <mxGeometry width="50" height="50" relative="1" as="geometry">
            <mxPoint x="190" y="330" as="sourcePoint" />
            <mxPoint x="190" y="300" as="targetPoint" />
          </mxGeometry>
        </mxCell>
        <mxCell id="m_GrjNjseGDkRT2hHFuu-16" value="" style="endArrow=none;html=1;rounded=0;" parent="1" edge="1">
          <mxGeometry width="50" height="50" relative="1" as="geometry">
            <mxPoint x="190" y="440" as="sourcePoint" />
            <mxPoint x="190" y="400" as="targetPoint" />
          </mxGeometry>
        </mxCell>
        <mxCell id="m_GrjNjseGDkRT2hHFuu-17" value="" style="endArrow=none;html=1;rounded=0;" parent="1" edge="1">
          <mxGeometry width="50" height="50" relative="1" as="geometry">
            <mxPoint x="190" y="550" as="sourcePoint" />
            <mxPoint x="190" y="500" as="targetPoint" />
          </mxGeometry>
        </mxCell>
        <mxCell id="m_GrjNjseGDkRT2hHFuu-19" value="" style="shape=document;whiteSpace=wrap;html=1;boundedLbl=1;" parent="1" vertex="1">
          <mxGeometry x="320" y="270" width="120" height="80" as="geometry" />
        </mxCell>
        <mxCell id="m_GrjNjseGDkRT2hHFuu-20" value="" style="shape=document;whiteSpace=wrap;html=1;boundedLbl=1;" parent="1" vertex="1">
          <mxGeometry x="480" y="270" width="120" height="80" as="geometry" />
        </mxCell>
        <mxCell id="m_GrjNjseGDkRT2hHFuu-21" value="" style="endArrow=none;html=1;rounded=0;" parent="1" edge="1">
          <mxGeometry width="50" height="50" relative="1" as="geometry">
            <mxPoint x="440" y="300" as="sourcePoint" />
            <mxPoint x="480" y="300" as="targetPoint" />
          </mxGeometry>
        </mxCell>
        <mxCell id="m_GrjNjseGDkRT2hHFuu-22" value="" style="shape=document;whiteSpace=wrap;html=1;boundedLbl=1;" parent="1" vertex="1">
          <mxGeometry x="640" y="270" width="120" height="80" as="geometry" />
        </mxCell>
        <mxCell id="m_GrjNjseGDkRT2hHFuu-23" value="" style="endArrow=none;html=1;rounded=0;" parent="1" edge="1">
          <mxGeometry width="50" height="50" relative="1" as="geometry">
            <mxPoint x="600" y="299" as="sourcePoint" />
            <mxPoint x="640" y="299" as="targetPoint" />
          </mxGeometry>
        </mxCell>
        <mxCell id="m_GrjNjseGDkRT2hHFuu-24" value="" style="shape=document;whiteSpace=wrap;html=1;boundedLbl=1;" parent="1" vertex="1">
          <mxGeometry x="320" y="380" width="120" height="80" as="geometry" />
        </mxCell>
        <mxCell id="m_GrjNjseGDkRT2hHFuu-25" value="" style="shape=document;whiteSpace=wrap;html=1;boundedLbl=1;" parent="1" vertex="1">
          <mxGeometry x="480" y="380" width="120" height="80" as="geometry" />
        </mxCell>
        <mxCell id="m_GrjNjseGDkRT2hHFuu-26" value="" style="shape=document;whiteSpace=wrap;html=1;boundedLbl=1;" parent="1" vertex="1">
          <mxGeometry x="640" y="380" width="120" height="80" as="geometry" />
        </mxCell>
        <mxCell id="m_GrjNjseGDkRT2hHFuu-29" value="" style="endArrow=none;html=1;rounded=0;" parent="1" edge="1">
          <mxGeometry width="50" height="50" relative="1" as="geometry">
            <mxPoint x="440" y="420" as="sourcePoint" />
            <mxPoint x="480" y="420" as="targetPoint" />
          </mxGeometry>
        </mxCell>
        <mxCell id="m_GrjNjseGDkRT2hHFuu-30" value="" style="endArrow=none;html=1;rounded=0;" parent="1" edge="1">
          <mxGeometry width="50" height="50" relative="1" as="geometry">
            <mxPoint x="600" y="420" as="sourcePoint" />
            <mxPoint x="640" y="420" as="targetPoint" />
          </mxGeometry>
        </mxCell>
        <mxCell id="m_GrjNjseGDkRT2hHFuu-31" value="" style="shape=document;whiteSpace=wrap;html=1;boundedLbl=1;" parent="1" vertex="1">
          <mxGeometry x="320" y="490" width="120" height="80" as="geometry" />
        </mxCell>
        <mxCell id="m_GrjNjseGDkRT2hHFuu-32" value="" style="shape=document;whiteSpace=wrap;html=1;boundedLbl=1;" parent="1" vertex="1">
          <mxGeometry x="480" y="490" width="120" height="80" as="geometry" />
        </mxCell>
        <mxCell id="m_GrjNjseGDkRT2hHFuu-33" value="" style="shape=document;whiteSpace=wrap;html=1;boundedLbl=1;" parent="1" vertex="1">
          <mxGeometry x="640" y="490" width="120" height="80" as="geometry" />
        </mxCell>
        <mxCell id="m_GrjNjseGDkRT2hHFuu-34" value="" style="endArrow=none;html=1;rounded=0;" parent="1" edge="1">
          <mxGeometry width="50" height="50" relative="1" as="geometry">
            <mxPoint x="440" y="530" as="sourcePoint" />
            <mxPoint x="480" y="530" as="targetPoint" />
          </mxGeometry>
        </mxCell>
        <mxCell id="m_GrjNjseGDkRT2hHFuu-35" value="" style="endArrow=none;html=1;rounded=0;" parent="1" edge="1">
          <mxGeometry width="50" height="50" relative="1" as="geometry">
            <mxPoint x="600" y="530" as="sourcePoint" />
            <mxPoint x="640" y="530" as="targetPoint" />
          </mxGeometry>
        </mxCell>
        <mxCell id="m_GrjNjseGDkRT2hHFuu-36" value="" style="shape=document;whiteSpace=wrap;html=1;boundedLbl=1;" parent="1" vertex="1">
          <mxGeometry x="320" y="600" width="120" height="80" as="geometry" />
        </mxCell>
        <mxCell id="m_GrjNjseGDkRT2hHFuu-37" value="" style="shape=document;whiteSpace=wrap;html=1;boundedLbl=1;" parent="1" vertex="1">
          <mxGeometry x="480" y="600" width="120" height="80" as="geometry" />
        </mxCell>
        <mxCell id="m_GrjNjseGDkRT2hHFuu-38" value="" style="shape=document;whiteSpace=wrap;html=1;boundedLbl=1;" parent="1" vertex="1">
          <mxGeometry x="640" y="600" width="120" height="80" as="geometry" />
        </mxCell>
        <mxCell id="m_GrjNjseGDkRT2hHFuu-39" value="" style="endArrow=none;html=1;rounded=0;" parent="1" edge="1">
          <mxGeometry width="50" height="50" relative="1" as="geometry">
            <mxPoint x="440" y="640" as="sourcePoint" />
            <mxPoint x="480" y="640" as="targetPoint" />
          </mxGeometry>
        </mxCell>
        <mxCell id="m_GrjNjseGDkRT2hHFuu-40" value="" style="endArrow=none;html=1;rounded=0;" parent="1" edge="1">
          <mxGeometry width="50" height="50" relative="1" as="geometry">
            <mxPoint x="600" y="640" as="sourcePoint" />
            <mxPoint x="640" y="640" as="targetPoint" />
          </mxGeometry>
        </mxCell>
      </root>
    </mxGraphModel>
  </diagram>
  <diagram name="Copy of Page-1" id="4srg_DY0lWlxOHkyQvbP">
    <mxGraphModel dx="864" dy="516" grid="1" gridSize="10" guides="1" tooltips="1" connect="1" arrows="1" fold="1" page="1" pageScale="1" pageWidth="827" pageHeight="1169" math="0" shadow="0">
      <root>
        <mxCell id="z-c1cO12Z43ly7mxWdP_-0" />
        <mxCell id="z-c1cO12Z43ly7mxWdP_-1" parent="z-c1cO12Z43ly7mxWdP_-0" />
        <mxCell id="z-c1cO12Z43ly7mxWdP_-2" value="&lt;font style=&quot;font-size: 14px;&quot; face=&quot;Times New Roman&quot;&gt;Business Understanding&lt;/font&gt;" style="shape=step;perimeter=stepPerimeter;whiteSpace=wrap;html=1;fixedSize=1;fillColor=#dae8fc;strokeColor=#6c8ebf;" parent="z-c1cO12Z43ly7mxWdP_-1" vertex="1">
          <mxGeometry x="140" y="120" width="120" height="80" as="geometry" />
        </mxCell>
        <mxCell id="z-c1cO12Z43ly7mxWdP_-3" value="&lt;font style=&quot;font-size: 13px;&quot; face=&quot;Times New Roman&quot;&gt;Data&amp;nbsp;&lt;br&gt;Understanding&lt;/font&gt;" style="shape=step;perimeter=stepPerimeter;whiteSpace=wrap;html=1;fixedSize=1;fillColor=#dae8fc;strokeColor=#6c8ebf;" parent="z-c1cO12Z43ly7mxWdP_-1" vertex="1">
          <mxGeometry x="240" y="120" width="120" height="80" as="geometry" />
        </mxCell>
        <mxCell id="z-c1cO12Z43ly7mxWdP_-4" value="&lt;font face=&quot;Times New Roman&quot; style=&quot;font-size: 14px;&quot;&gt;Data&amp;nbsp;&lt;br&gt;Preparation&lt;/font&gt;" style="shape=step;perimeter=stepPerimeter;whiteSpace=wrap;html=1;fixedSize=1;fillColor=#dae8fc;strokeColor=#6c8ebf;" parent="z-c1cO12Z43ly7mxWdP_-1" vertex="1">
          <mxGeometry x="340" y="120" width="120" height="80" as="geometry" />
        </mxCell>
        <mxCell id="z-c1cO12Z43ly7mxWdP_-5" value="&lt;font face=&quot;Times New Roman&quot; style=&quot;font-size: 14px;&quot;&gt;Modelling&lt;/font&gt;" style="shape=step;perimeter=stepPerimeter;whiteSpace=wrap;html=1;fixedSize=1;fillColor=#dae8fc;strokeColor=#6c8ebf;" parent="z-c1cO12Z43ly7mxWdP_-1" vertex="1">
          <mxGeometry x="440" y="120" width="120" height="80" as="geometry" />
        </mxCell>
        <mxCell id="z-c1cO12Z43ly7mxWdP_-6" value="&lt;font face=&quot;Times New Roman&quot; style=&quot;font-size: 14px;&quot;&gt;Evaluation&lt;/font&gt;" style="shape=step;perimeter=stepPerimeter;whiteSpace=wrap;html=1;fixedSize=1;fillColor=#dae8fc;strokeColor=#6c8ebf;" parent="z-c1cO12Z43ly7mxWdP_-1" vertex="1">
          <mxGeometry x="540" y="120" width="120" height="80" as="geometry" />
        </mxCell>
        <mxCell id="z-c1cO12Z43ly7mxWdP_-7" value="&lt;font face=&quot;Times New Roman&quot; style=&quot;font-size: 14px;&quot;&gt;Deployment&lt;/font&gt;" style="shape=step;perimeter=stepPerimeter;whiteSpace=wrap;html=1;fixedSize=1;fillColor=#dae8fc;strokeColor=#6c8ebf;" parent="z-c1cO12Z43ly7mxWdP_-1" vertex="1">
          <mxGeometry x="640" y="120" width="120" height="80" as="geometry" />
        </mxCell>
        <mxCell id="z-c1cO12Z43ly7mxWdP_-9" value="&lt;font face=&quot;Times New Roman&quot;&gt;Determine Business Objectives&lt;/font&gt;" style="shape=process;whiteSpace=wrap;html=1;backgroundOutline=1;" parent="z-c1cO12Z43ly7mxWdP_-1" vertex="1">
          <mxGeometry x="140" y="240" width="120" height="60" as="geometry" />
        </mxCell>
        <mxCell id="z-c1cO12Z43ly7mxWdP_-11" value="&lt;font face=&quot;Times New Roman&quot;&gt;Assess&lt;br&gt;Situation&lt;br&gt;&lt;/font&gt;" style="shape=process;whiteSpace=wrap;html=1;backgroundOutline=1;" parent="z-c1cO12Z43ly7mxWdP_-1" vertex="1">
          <mxGeometry x="140" y="340" width="120" height="60" as="geometry" />
        </mxCell>
        <mxCell id="z-c1cO12Z43ly7mxWdP_-12" value="&lt;font face=&quot;Times New Roman&quot;&gt;Determine&amp;nbsp;&lt;br&gt;Data Mining&lt;br&gt;Goals&lt;br&gt;&lt;/font&gt;" style="shape=process;whiteSpace=wrap;html=1;backgroundOutline=1;" parent="z-c1cO12Z43ly7mxWdP_-1" vertex="1">
          <mxGeometry x="140" y="440" width="120" height="60" as="geometry" />
        </mxCell>
        <mxCell id="z-c1cO12Z43ly7mxWdP_-13" value="&lt;font face=&quot;Times New Roman&quot;&gt;Produce Project Plan&lt;/font&gt;" style="shape=process;whiteSpace=wrap;html=1;backgroundOutline=1;" parent="z-c1cO12Z43ly7mxWdP_-1" vertex="1">
          <mxGeometry x="140" y="550" width="120" height="60" as="geometry" />
        </mxCell>
        <mxCell id="z-c1cO12Z43ly7mxWdP_-14" value="" style="endArrow=none;html=1;rounded=0;exitX=0.417;exitY=-0.05;exitDx=0;exitDy=0;exitPerimeter=0;entryX=0.417;entryY=1;entryDx=0;entryDy=0;entryPerimeter=0;" parent="z-c1cO12Z43ly7mxWdP_-1" source="z-c1cO12Z43ly7mxWdP_-9" target="z-c1cO12Z43ly7mxWdP_-2" edge="1">
          <mxGeometry width="50" height="50" relative="1" as="geometry">
            <mxPoint x="190" y="230" as="sourcePoint" />
            <mxPoint x="190" y="210" as="targetPoint" />
          </mxGeometry>
        </mxCell>
        <mxCell id="z-c1cO12Z43ly7mxWdP_-15" value="" style="endArrow=none;html=1;rounded=0;exitX=0.417;exitY=0;exitDx=0;exitDy=0;exitPerimeter=0;" parent="z-c1cO12Z43ly7mxWdP_-1" source="z-c1cO12Z43ly7mxWdP_-11" edge="1">
          <mxGeometry width="50" height="50" relative="1" as="geometry">
            <mxPoint x="190" y="330" as="sourcePoint" />
            <mxPoint x="190" y="300" as="targetPoint" />
          </mxGeometry>
        </mxCell>
        <mxCell id="z-c1cO12Z43ly7mxWdP_-16" value="" style="endArrow=none;html=1;rounded=0;" parent="z-c1cO12Z43ly7mxWdP_-1" edge="1">
          <mxGeometry width="50" height="50" relative="1" as="geometry">
            <mxPoint x="190" y="440" as="sourcePoint" />
            <mxPoint x="190" y="400" as="targetPoint" />
          </mxGeometry>
        </mxCell>
        <mxCell id="z-c1cO12Z43ly7mxWdP_-17" value="" style="endArrow=none;html=1;rounded=0;" parent="z-c1cO12Z43ly7mxWdP_-1" edge="1">
          <mxGeometry width="50" height="50" relative="1" as="geometry">
            <mxPoint x="190" y="550" as="sourcePoint" />
            <mxPoint x="190" y="500" as="targetPoint" />
          </mxGeometry>
        </mxCell>
      </root>
    </mxGraphModel>
  </diagram>
  <diagram id="r9d7tclXSIvgsQx7J0-P" name="Page-3">
    <mxGraphModel dx="37" dy="516" grid="1" gridSize="10" guides="1" tooltips="1" connect="1" arrows="1" fold="1" page="1" pageScale="1" pageWidth="827" pageHeight="1169" math="0" shadow="0">
      <root>
        <mxCell id="0" />
        <mxCell id="1" parent="0" />
        <mxCell id="_B9DRmp9jVcY_Qki_T64-1" value="" style="endArrow=none;dashed=1;html=1;dashPattern=1 3;strokeWidth=2;rounded=0;" parent="1" edge="1">
          <mxGeometry width="50" height="50" relative="1" as="geometry">
            <mxPoint x="991" y="140" as="sourcePoint" />
            <mxPoint x="1491" y="140" as="targetPoint" />
          </mxGeometry>
        </mxCell>
        <mxCell id="_B9DRmp9jVcY_Qki_T64-11" value="" style="edgeStyle=orthogonalEdgeStyle;rounded=0;orthogonalLoop=1;jettySize=auto;html=1;" parent="1" source="_B9DRmp9jVcY_Qki_T64-7" target="_B9DRmp9jVcY_Qki_T64-10" edge="1">
          <mxGeometry relative="1" as="geometry" />
        </mxCell>
        <mxCell id="_B9DRmp9jVcY_Qki_T64-7" value="&lt;font face=&quot;Times New Roman&quot;&gt;&lt;span style=&quot;font-size: 14px;&quot;&gt;Latar Belakang Masalah&lt;/span&gt;&lt;/font&gt;" style="whiteSpace=wrap;html=1;rounded=1;" parent="1" vertex="1">
          <mxGeometry x="1120" y="170" width="180" height="40" as="geometry" />
        </mxCell>
        <mxCell id="_B9DRmp9jVcY_Qki_T64-9" value="" style="endArrow=none;dashed=1;html=1;dashPattern=1 3;strokeWidth=2;rounded=0;" parent="1" edge="1">
          <mxGeometry width="50" height="50" relative="1" as="geometry">
            <mxPoint x="990" y="240" as="sourcePoint" />
            <mxPoint x="1490" y="240" as="targetPoint" />
          </mxGeometry>
        </mxCell>
        <mxCell id="_B9DRmp9jVcY_Qki_T64-15" value="" style="edgeStyle=orthogonalEdgeStyle;rounded=0;orthogonalLoop=1;jettySize=auto;html=1;" parent="1" source="_B9DRmp9jVcY_Qki_T64-10" target="_B9DRmp9jVcY_Qki_T64-14" edge="1">
          <mxGeometry relative="1" as="geometry" />
        </mxCell>
        <mxCell id="_B9DRmp9jVcY_Qki_T64-10" value="&lt;font face=&quot;Times New Roman&quot; style=&quot;font-size: 14px;&quot;&gt;Pengumpulan Data&lt;/font&gt;" style="whiteSpace=wrap;html=1;rounded=1;" parent="1" vertex="1">
          <mxGeometry x="1120" y="260" width="180" height="30" as="geometry" />
        </mxCell>
        <mxCell id="_B9DRmp9jVcY_Qki_T64-17" value="" style="edgeStyle=orthogonalEdgeStyle;rounded=0;orthogonalLoop=1;jettySize=auto;html=1;" parent="1" source="_B9DRmp9jVcY_Qki_T64-14" edge="1">
          <mxGeometry relative="1" as="geometry">
            <mxPoint x="1210" y="360" as="targetPoint" />
          </mxGeometry>
        </mxCell>
        <mxCell id="_B9DRmp9jVcY_Qki_T64-14" value="&lt;font face=&quot;Times New Roman&quot; style=&quot;font-size: 14px;&quot;&gt;Pendeskripsian Data&lt;/font&gt;" style="whiteSpace=wrap;html=1;rounded=1;" parent="1" vertex="1">
          <mxGeometry x="1120" y="310" width="180" height="30" as="geometry" />
        </mxCell>
        <mxCell id="_B9DRmp9jVcY_Qki_T64-30" value="" style="edgeStyle=orthogonalEdgeStyle;rounded=0;orthogonalLoop=1;jettySize=auto;html=1;" parent="1" source="_B9DRmp9jVcY_Qki_T64-19" edge="1">
          <mxGeometry relative="1" as="geometry">
            <mxPoint x="1210" y="520" as="targetPoint" />
          </mxGeometry>
        </mxCell>
        <mxCell id="_B9DRmp9jVcY_Qki_T64-19" value="&lt;div&gt;&lt;div style=&quot;text-align: center;&quot;&gt;&lt;font face=&quot;Times New Roman&quot;&gt;Data Preparation&lt;/font&gt;&lt;/div&gt;&lt;ol&gt;&lt;li&gt;&lt;font face=&quot;Times New Roman&quot;&gt;Data Cleaning&lt;/font&gt;&lt;/li&gt;&lt;li&gt;&lt;font face=&quot;Times New Roman&quot;&gt;Feature Selection&lt;/font&gt;&lt;/li&gt;&lt;li&gt;&lt;font face=&quot;Times New Roman&quot;&gt;Data Transformation&lt;/font&gt;&lt;/li&gt;&lt;li&gt;&lt;font face=&quot;Times New Roman&quot;&gt;Data Visualisation&lt;/font&gt;&lt;/li&gt;&lt;li&gt;&lt;font face=&quot;Times New Roman&quot;&gt;Data Balancing&lt;/font&gt;&lt;/li&gt;&lt;li&gt;&lt;font face=&quot;Times New Roman&quot;&gt;Data Splitting&lt;/font&gt;&lt;/li&gt;&lt;/ol&gt;&lt;/div&gt;" style="rounded=0;whiteSpace=wrap;html=1;align=left;" parent="1" vertex="1">
          <mxGeometry x="1120" y="360" width="180" height="130" as="geometry" />
        </mxCell>
        <mxCell id="_B9DRmp9jVcY_Qki_T64-26" value="" style="endArrow=none;dashed=1;html=1;dashPattern=1 3;strokeWidth=2;rounded=0;" parent="1" edge="1">
          <mxGeometry width="50" height="50" relative="1" as="geometry">
            <mxPoint x="990" y="500" as="sourcePoint" />
            <mxPoint x="1490" y="500" as="targetPoint" />
          </mxGeometry>
        </mxCell>
        <mxCell id="_B9DRmp9jVcY_Qki_T64-36" value="" style="edgeStyle=orthogonalEdgeStyle;rounded=0;orthogonalLoop=1;jettySize=auto;html=1;entryX=0.5;entryY=0;entryDx=0;entryDy=0;" parent="1" source="_B9DRmp9jVcY_Qki_T64-32" target="_B9DRmp9jVcY_Qki_T64-37" edge="1">
          <mxGeometry relative="1" as="geometry">
            <mxPoint x="1211.5" y="595" as="targetPoint" />
          </mxGeometry>
        </mxCell>
        <mxCell id="_B9DRmp9jVcY_Qki_T64-32" value="&lt;font face=&quot;Times New Roman&quot; style=&quot;font-size: 14px;&quot;&gt;Pemodelan Algoritma Machine Learning&amp;nbsp;&lt;/font&gt;" style="rounded=1;whiteSpace=wrap;html=1;" parent="1" vertex="1">
          <mxGeometry x="1122" y="520" width="179" height="40" as="geometry" />
        </mxCell>
        <mxCell id="_B9DRmp9jVcY_Qki_T64-34" value="" style="endArrow=none;dashed=1;html=1;dashPattern=1 3;strokeWidth=2;rounded=0;" parent="1" edge="1">
          <mxGeometry width="50" height="50" relative="1" as="geometry">
            <mxPoint x="991" y="580" as="sourcePoint" />
            <mxPoint x="1491" y="580" as="targetPoint" />
          </mxGeometry>
        </mxCell>
        <mxCell id="_B9DRmp9jVcY_Qki_T64-53" value="" style="edgeStyle=orthogonalEdgeStyle;rounded=0;orthogonalLoop=1;jettySize=auto;html=1;" parent="1" source="_B9DRmp9jVcY_Qki_T64-37" target="_B9DRmp9jVcY_Qki_T64-51" edge="1">
          <mxGeometry relative="1" as="geometry" />
        </mxCell>
        <mxCell id="_B9DRmp9jVcY_Qki_T64-37" value="&lt;div style=&quot;text-align: center;&quot;&gt;&lt;font face=&quot;Times New Roman&quot;&gt;Evaluasi Pemodelan&lt;/font&gt;&lt;/div&gt;&lt;ol&gt;&lt;li&gt;&lt;font face=&quot;Times New Roman&quot;&gt;Confusion Matrix&lt;br&gt;&lt;/font&gt;&lt;/li&gt;&lt;li&gt;&lt;font face=&quot;Times New Roman&quot;&gt;Comparative Analysis&lt;/font&gt;&lt;/li&gt;&lt;li&gt;&lt;font face=&quot;Times New Roman&quot;&gt;Result for Comparative Analysis&lt;/font&gt;&lt;/li&gt;&lt;/ol&gt;" style="rounded=0;whiteSpace=wrap;html=1;align=left;" parent="1" vertex="1">
          <mxGeometry x="1121.5" y="610" width="180" height="120" as="geometry" />
        </mxCell>
        <mxCell id="_B9DRmp9jVcY_Qki_T64-48" value="" style="endArrow=none;dashed=1;html=1;dashPattern=1 3;strokeWidth=2;rounded=0;" parent="1" edge="1">
          <mxGeometry width="50" height="50" relative="1" as="geometry">
            <mxPoint x="991" y="750" as="sourcePoint" />
            <mxPoint x="1491" y="750" as="targetPoint" />
          </mxGeometry>
        </mxCell>
        <mxCell id="_B9DRmp9jVcY_Qki_T64-62" value="" style="edgeStyle=orthogonalEdgeStyle;rounded=0;orthogonalLoop=1;jettySize=auto;html=1;" parent="1" source="_B9DRmp9jVcY_Qki_T64-51" target="_B9DRmp9jVcY_Qki_T64-61" edge="1">
          <mxGeometry relative="1" as="geometry" />
        </mxCell>
        <mxCell id="_B9DRmp9jVcY_Qki_T64-51" value="&lt;font face=&quot;Times New Roman&quot; style=&quot;font-size: 14px;&quot;&gt;Perancangan Prototipe dengan Django Framework&lt;/font&gt;" style="rounded=1;whiteSpace=wrap;html=1;" parent="1" vertex="1">
          <mxGeometry x="1122" y="770" width="180" height="60" as="geometry" />
        </mxCell>
        <mxCell id="_B9DRmp9jVcY_Qki_T64-54" value="" style="endArrow=none;dashed=1;html=1;dashPattern=1 3;strokeWidth=2;rounded=0;" parent="1" edge="1">
          <mxGeometry width="50" height="50" relative="1" as="geometry">
            <mxPoint x="991" y="850" as="sourcePoint" />
            <mxPoint x="1491" y="850" as="targetPoint" />
          </mxGeometry>
        </mxCell>
        <mxCell id="_B9DRmp9jVcY_Qki_T64-55" value="&lt;font style=&quot;font-size: 14px;&quot; face=&quot;Times New Roman&quot;&gt;Fase 1&lt;/font&gt;" style="text;html=1;strokeColor=none;fillColor=none;align=center;verticalAlign=middle;whiteSpace=wrap;rounded=0;" parent="1" vertex="1">
          <mxGeometry x="1020" y="170" width="60" height="30" as="geometry" />
        </mxCell>
        <mxCell id="_B9DRmp9jVcY_Qki_T64-56" value="&lt;font style=&quot;font-size: 14px;&quot; face=&quot;Times New Roman&quot;&gt;Fase 2&lt;/font&gt;" style="text;html=1;strokeColor=none;fillColor=none;align=center;verticalAlign=middle;whiteSpace=wrap;rounded=0;" parent="1" vertex="1">
          <mxGeometry x="999" y="290" width="60" height="30" as="geometry" />
        </mxCell>
        <mxCell id="_B9DRmp9jVcY_Qki_T64-57" value="&lt;font style=&quot;font-size: 14px;&quot; face=&quot;Times New Roman&quot;&gt;Fase 4&lt;/font&gt;" style="text;html=1;strokeColor=none;fillColor=none;align=center;verticalAlign=middle;whiteSpace=wrap;rounded=0;" parent="1" vertex="1">
          <mxGeometry x="999" y="520" width="60" height="30" as="geometry" />
        </mxCell>
        <mxCell id="_B9DRmp9jVcY_Qki_T64-58" value="&lt;font style=&quot;font-size: 14px;&quot; face=&quot;Times New Roman&quot;&gt;Fase 5&lt;/font&gt;" style="text;html=1;strokeColor=none;fillColor=none;align=center;verticalAlign=middle;whiteSpace=wrap;rounded=0;" parent="1" vertex="1">
          <mxGeometry x="1000" y="600" width="60" height="30" as="geometry" />
        </mxCell>
        <mxCell id="_B9DRmp9jVcY_Qki_T64-59" value="&lt;font style=&quot;font-size: 14px;&quot; face=&quot;Times New Roman&quot;&gt;Fase 6&lt;/font&gt;" style="text;html=1;strokeColor=none;fillColor=none;align=center;verticalAlign=middle;whiteSpace=wrap;rounded=0;" parent="1" vertex="1">
          <mxGeometry x="1000" y="760" width="60" height="30" as="geometry" />
        </mxCell>
        <mxCell id="_B9DRmp9jVcY_Qki_T64-60" value="&lt;font style=&quot;font-size: 14px;&quot; face=&quot;Times New Roman&quot;&gt;Fase 3&lt;/font&gt;" style="text;html=1;strokeColor=none;fillColor=none;align=center;verticalAlign=middle;whiteSpace=wrap;rounded=0;" parent="1" vertex="1">
          <mxGeometry x="999" y="380" width="60" height="30" as="geometry" />
        </mxCell>
        <mxCell id="_B9DRmp9jVcY_Qki_T64-61" value="&lt;font face=&quot;Times New Roman&quot;&gt;&lt;span style=&quot;font-size: 14px;&quot;&gt;Kesimpulan&lt;/span&gt;&lt;/font&gt;" style="rounded=1;whiteSpace=wrap;html=1;" parent="1" vertex="1">
          <mxGeometry x="1122" y="870" width="180" height="40" as="geometry" />
        </mxCell>
        <mxCell id="_B9DRmp9jVcY_Qki_T64-64" value="&lt;font style=&quot;font-size: 14px;&quot; face=&quot;Times New Roman&quot;&gt;Business Understanding&lt;/font&gt;" style="text;html=1;strokeColor=none;fillColor=none;align=center;verticalAlign=middle;whiteSpace=wrap;rounded=0;" parent="1" vertex="1">
          <mxGeometry x="1350" y="170" width="100" height="30" as="geometry" />
        </mxCell>
        <mxCell id="_B9DRmp9jVcY_Qki_T64-65" value="&lt;font style=&quot;font-size: 14px;&quot; face=&quot;Times New Roman&quot;&gt;Data Understanding&lt;/font&gt;" style="text;html=1;strokeColor=none;fillColor=none;align=center;verticalAlign=middle;whiteSpace=wrap;rounded=0;" parent="1" vertex="1">
          <mxGeometry x="1360" y="280" width="100" height="30" as="geometry" />
        </mxCell>
        <mxCell id="_B9DRmp9jVcY_Qki_T64-66" value="&lt;font style=&quot;font-size: 14px;&quot; face=&quot;Times New Roman&quot;&gt;Data Preparation&lt;/font&gt;" style="text;html=1;strokeColor=none;fillColor=none;align=center;verticalAlign=middle;whiteSpace=wrap;rounded=0;" parent="1" vertex="1">
          <mxGeometry x="1370" y="380" width="100" height="30" as="geometry" />
        </mxCell>
        <mxCell id="_B9DRmp9jVcY_Qki_T64-67" value="&lt;font style=&quot;font-size: 14px;&quot; face=&quot;Times New Roman&quot;&gt;Modelling&lt;/font&gt;" style="text;html=1;strokeColor=none;fillColor=none;align=center;verticalAlign=middle;whiteSpace=wrap;rounded=0;" parent="1" vertex="1">
          <mxGeometry x="1370" y="520" width="100" height="30" as="geometry" />
        </mxCell>
        <mxCell id="_B9DRmp9jVcY_Qki_T64-68" value="&lt;font style=&quot;font-size: 14px;&quot; face=&quot;Times New Roman&quot;&gt;Evaluation&lt;/font&gt;" style="text;html=1;strokeColor=none;fillColor=none;align=center;verticalAlign=middle;whiteSpace=wrap;rounded=0;" parent="1" vertex="1">
          <mxGeometry x="1371" y="600" width="100" height="30" as="geometry" />
        </mxCell>
        <mxCell id="_B9DRmp9jVcY_Qki_T64-69" value="&lt;font style=&quot;font-size: 14px;&quot; face=&quot;Times New Roman&quot;&gt;Deployment&lt;/font&gt;" style="text;html=1;strokeColor=none;fillColor=none;align=center;verticalAlign=middle;whiteSpace=wrap;rounded=0;" parent="1" vertex="1">
          <mxGeometry x="1371" y="760" width="100" height="30" as="geometry" />
        </mxCell>
      </root>
    </mxGraphModel>
  </diagram>
</mxfile>
